<?xml version="1.0" standalone="no"?>
<!DOCTYPE svg PUBLIC "-//W3C//DTD SVG 20010904//EN"
 "http://www.w3.org/TR/2001/REC-SVG-20010904/DTD/svg10.dtd">
<svg version="1.0" xmlns="http://www.w3.org/2000/svg"
 width="16.000000pt" height="16.000000pt" viewBox="0 0 16.000000 16.000000"
 preserveAspectRatio="xMidYMid meet">
<metadata>
Created by potrace 1.11, written by Peter Selinger 2001-2013
</metadata>
<g transform="translate(0.000000,16.000000) scale(0.000397,-0.000397)"
fill="#000000" stroke="none">
<path d="M5988 31076 c-1 -2 -37 -6 -78 -10 -214 -18 -482 -82 -680 -163 -240
-97 -429 -222 -611 -402 -308 -305 -487 -687 -563 -1201 -18 -120 -21 -471
-21 -2505 0 -2020 3 -2395 20 -2485 2 -14 9 -54 14 -90 75 -497 319 -946 667
-1231 310 -253 708 -408 1169 -454 33 -4 74 -8 90 -11 39 -5 454 -6 463 0 4 2
45 7 92 11 46 3 87 8 90 10 3 1 27 6 54 9 347 47 716 212 989 443 311 265 553
701 631 1138 3 17 8 39 10 50 2 11 7 43 10 70 4 28 9 61 11 75 18 105 30 1223
14 1267 l-8 21 -688 1 c-378 0 -700 -2 -714 -5 l-25 -5 -1 -557 c0 -307 -3
-591 -7 -632 -45 -463 -267 -660 -726 -645 -152 5 -182 10 -285 42 -144 46
-252 134 -318 261 -37 73 -71 170 -83 242 -4 25 -8 47 -9 50 -1 3 -5 41 -10
85 -10 98 -13 4558 -3 4670 26 279 110 467 258 579 59 44 174 87 295 111 57
11 250 14 309 4 241 -40 435 -236 521 -529 47 -160 57 -281 60 -705 1 -214 3
-393 4 -397 0 -5 320 -8 711 -8 665 0 710 1 719 18 9 17 7 695 -3 826 -5 60
-17 163 -31 264 -41 281 -170 641 -315 877 -141 230 -365 461 -580 597 -252
161 -554 264 -887 303 -109 13 -542 21 -555 11z"/>
<path d="M11695 31069 c-187 -20 -402 -65 -569 -121 -114 -38 -327 -139 -426
-203 -410 -262 -694 -675 -813 -1180 -15 -60 -29 -126 -32 -145 -3 -19 -7 -46
-10 -60 -5 -29 -13 -83 -22 -160 -9 -77 -12 -4624 -2 -4740 8 -106 18 -197 24
-220 2 -8 7 -35 10 -60 10 -71 62 -269 96 -366 115 -326 318 -624 559 -820 19
-16 37 -31 40 -35 3 -3 50 -37 105 -74 110 -75 335 -187 460 -230 182 -61 440
-113 650 -130 83 -6 421 -7 485 0 25 2 72 7 105 10 247 25 590 118 750 204 22
11 43 21 47 21 15 0 207 119 279 172 348 259 595 647 702 1103 15 61 29 124
31 140 13 77 27 188 34 265 9 117 9 4600 -1 4727 -44 578 -275 1076 -653 1409
-287 254 -694 428 -1119 480 -27 3 -61 8 -75 11 -44 9 -572 11 -655 2z m580
-1269 c111 -27 208 -77 271 -138 64 -62 78 -80 114 -153 49 -96 74 -191 97
-374 10 -74 9 -4584 -1 -4679 -43 -426 -219 -629 -586 -675 -74 -10 -321 -7
-350 3 -8 3 -28 7 -45 9 -171 25 -331 136 -407 284 -36 69 -72 170 -82 233 -3
19 -8 46 -11 60 -16 82 -19 396 -19 2435 0 1989 3 2399 18 2424 2 3 7 27 10
52 8 63 48 176 88 251 83 156 252 259 471 287 117 15 334 5 432 -19z"/>
<path d="M22039 31076 c-2 -3 -38 -7 -79 -11 -60 -4 -216 -28 -265 -39 -5 -2
-28 -6 -50 -10 -22 -4 -53 -12 -70 -17 -181 -53 -308 -100 -429 -161 -74 -37
-194 -106 -206 -118 -3 -3 -27 -21 -55 -40 -151 -105 -320 -282 -440 -460 -68
-101 -171 -310 -215 -435 -65 -187 -114 -426 -128 -635 -10 -131 -9 -4591 0
-4715 5 -55 10 -111 13 -125 2 -14 9 -54 15 -90 5 -36 12 -76 15 -90 3 -14 7
-36 10 -50 48 -257 205 -604 368 -810 86 -109 189 -216 262 -272 17 -12 39
-31 50 -41 72 -65 316 -204 475 -271 159 -66 456 -135 655 -151 39 -4 76 -8
84 -11 17 -6 448 -5 481 0 14 3 57 7 95 11 39 3 111 13 160 21 77 13 118 22
235 49 235 56 535 201 725 353 255 204 436 447 573 772 37 87 103 310 116 390
3 19 8 46 11 60 3 14 8 45 11 70 3 25 7 52 9 60 3 8 8 62 12 120 10 141 10
4610 0 4730 -8 97 -10 113 -28 235 -43 274 -165 598 -310 820 -248 379 -639
651 -1119 778 -99 27 -229 52 -315 62 -27 4 -61 9 -75 12 -31 7 -584 16 -591
9z m456 -1261 c340 -67 501 -268 541 -675 10 -99 9 -4618 -1 -4695 -4 -33 -9
-69 -11 -80 -2 -11 -7 -36 -10 -55 -24 -146 -114 -319 -201 -388 -71 -56 -153
-98 -200 -103 -5 -1 -17 -6 -27 -11 -54 -29 -382 -45 -491 -24 -163 32 -271
82 -353 165 -84 84 -153 226 -176 361 -3 19 -8 46 -11 60 -16 82 -19 366 -18
2440 0 2445 -1 2383 50 2560 76 265 235 402 518 445 78 13 328 12 390 0z"/>
<path d="M15538 30968 c-10 -6 -13 -842 -14 -4162 0 -2286 3 -4161 7 -4168 7
-10 369 -13 1831 -14 1003 -1 1830 3 1839 7 15 8 17 64 17 611 0 332 -2 611
-4 621 -5 16 -67 17 -1119 17 -868 0 -1115 3 -1121 12 -5 7 -8 1600 -8 3539
-1 1940 -5 3531 -9 3536 -11 10 -1402 12 -1419 1z"/>
<path d="M25881 30961 c-10 -19 -7 -6435 3 -6506 4 -27 11 -86 16 -130 6 -44
13 -93 16 -110 16 -92 36 -185 45 -220 21 -73 50 -170 59 -190 4 -11 13 -36
20 -55 18 -52 38 -95 87 -195 138 -277 341 -506 603 -682 271 -182 621 -299
1010 -338 36 -4 76 -9 90 -11 32 -5 411 -5 470 0 71 7 195 19 200 21 3 1 28 5
55 9 199 30 390 86 580 168 268 117 516 310 686 533 38 50 73 95 78 101 22 27
120 205 153 279 96 213 171 497 194 740 3 39 9 79 12 90 3 11 7 1477 8 3258
l2 3238 -21 8 c-29 11 -1403 8 -1414 -2 -4 -5 -8 -1458 -9 -3230 -1 -2418 -4
-3242 -13 -3303 -24 -170 -65 -285 -140 -394 -76 -111 -175 -185 -304 -225
-103 -33 -163 -40 -322 -39 -256 2 -429 74 -559 234 -28 35 -92 159 -111 214
-20 63 -44 174 -52 246 -3 30 -6 1503 -7 3272 0 1769 -5 3220 -9 3225 -5 4
-326 8 -714 9 -628 0 -705 -2 -712 -15z"/>
<path d="M31657 30948 c-3 -13 -5 -1887 -5 -4166 0 -4141 0 -4144 21 -4151 27
-10 1403 -8 1414 2 4 5 8 769 8 1698 0 1144 4 1692 11 1699 15 15 63 18 316
25 125 3 233 7 240 9 7 3 45 7 85 11 63 5 73 3 81 -12 5 -10 35 -106 66 -213
32 -107 62 -208 67 -225 5 -16 34 -115 65 -220 109 -373 158 -539 206 -700 16
-55 32 -109 35 -120 3 -11 26 -87 50 -170 25 -82 49 -163 53 -180 4 -16 22
-77 39 -135 18 -58 33 -112 35 -120 3 -12 89 -302 236 -800 10 -36 38 -128 60
-205 22 -77 51 -171 63 -210 11 -38 22 -72 22 -75 6 -34 18 -58 32 -62 26 -7
1430 -4 1437 3 7 6 -45 176 -174 569 -10 30 -39 123 -65 205 -26 83 -62 195
-80 250 -18 55 -61 188 -95 295 -34 107 -73 227 -85 265 -21 61 -127 393 -217
675 -16 52 -38 120 -48 150 -10 30 -34 105 -53 165 -32 100 -89 278 -242 755
-107 330 -135 422 -135 436 0 7 24 26 53 40 409 206 703 611 841 1160 23 93
49 224 60 304 2 19 7 55 11 80 34 247 39 737 10 990 -3 25 -7 68 -10 95 -9 85
-45 286 -66 370 -10 44 -22 91 -25 105 -10 47 -75 230 -105 297 -56 125 -63
138 -122 238 -125 209 -304 394 -516 533 -90 59 -307 164 -416 201 -118 40
-297 85 -415 105 -299 51 -248 49 -1531 53 l-1207 4 -5 -23z m1993 -1163 c246
-9 267 -12 398 -46 375 -99 550 -370 598 -924 16 -187 7 -611 -17 -765 -15
-101 -17 -110 -38 -192 -54 -211 -155 -371 -295 -468 -105 -72 -291 -132 -446
-145 -41 -3 -97 -8 -125 -11 -105 -10 -608 -5 -619 6 -7 7 -10 380 -11 1253 0
683 2 1254 4 1269 l3 28 172 2 c94 2 176 2 181 1 6 -1 93 -4 195 -8z"/>
<path d="M9573 21792 c-20 -3 -22 -8 -17 -45 3 -23 9 -58 14 -77 5 -19 12 -55
15 -80 4 -24 8 -47 10 -50 2 -3 6 -23 9 -45 5 -32 53 -289 81 -435 3 -14 7
-36 10 -50 3 -14 18 -95 34 -180 17 -85 32 -166 35 -180 2 -14 21 -110 41
-215 34 -180 51 -268 95 -500 10 -55 35 -185 55 -290 20 -104 38 -199 39 -210
2 -11 10 -56 19 -100 9 -44 18 -91 21 -105 9 -56 39 -215 71 -380 30 -154 43
-223 61 -320 2 -14 7 -38 11 -55 9 -43 10 -46 16 -85 4 -19 26 -141 51 -270
25 -129 47 -249 50 -265 3 -17 17 -89 31 -160 14 -72 28 -143 31 -160 8 -51
64 -347 74 -395 5 -25 25 -128 44 -230 19 -102 47 -247 61 -322 14 -76 28
-150 31 -165 3 -15 7 -35 9 -43 3 -8 7 -32 11 -54 3 -21 8 -48 10 -60 2 -11
20 -106 40 -211 19 -104 44 -230 54 -280 10 -49 21 -106 24 -125 3 -19 13 -73
22 -120 21 -111 20 -108 44 -230 12 -58 23 -116 25 -130 2 -14 20 -110 40
-215 47 -246 75 -394 81 -425 2 -14 13 -70 24 -125 36 -188 131 -690 136 -725
3 -19 7 -37 9 -40 2 -3 6 -26 9 -50 13 -95 28 -138 50 -142 33 -7 1174 -4
1180 3 5 5 16 56 32 144 3 17 14 82 25 145 11 63 22 124 24 135 1 11 8 47 14
80 6 33 13 76 16 95 3 19 8 42 10 50 3 8 7 32 9 53 4 32 22 133 51 297 3 14
14 79 26 145 24 140 25 143 38 215 6 30 13 71 16 90 3 19 31 175 61 345 30
171 57 325 60 344 3 18 8 43 10 55 2 11 8 46 14 76 5 30 12 69 15 85 3 17 14
82 25 145 11 63 22 126 25 140 14 77 97 550 101 580 3 19 7 42 9 50 4 13 46
254 61 345 3 17 7 37 9 45 2 8 6 33 10 55 5 34 13 83 29 170 2 11 7 38 11 60
4 22 9 49 10 60 2 11 6 36 10 55 3 19 17 98 30 175 27 152 37 208 59 330 8 44
17 96 20 115 3 19 13 73 21 120 9 47 18 99 21 115 3 17 10 57 16 90 6 33 12
69 13 80 2 11 15 88 30 170 15 83 29 160 30 172 5 36 16 63 26 63 5 0 9 -3 9
-8 0 -4 7 -39 15 -77 8 -39 22 -108 31 -155 17 -96 15 -88 44 -235 12 -60 24
-121 26 -135 6 -35 63 -334 75 -396 5 -28 12 -64 15 -80 2 -16 13 -74 24 -129
11 -55 22 -116 25 -135 3 -19 8 -42 10 -50 2 -8 7 -31 10 -50 6 -37 50 -270
91 -485 26 -135 91 -478 100 -530 3 -16 16 -86 29 -155 13 -69 34 -177 45
-240 12 -63 28 -147 36 -186 12 -61 116 -611 129 -684 2 -14 23 -122 45 -240
22 -118 43 -230 46 -249 3 -18 8 -43 10 -55 10 -47 25 -123 29 -151 3 -16 10
-50 15 -75 5 -25 19 -97 31 -160 11 -63 23 -126 26 -140 2 -14 22 -117 43
-230 44 -230 42 -220 65 -350 10 -52 22 -99 27 -105 11 -12 1152 -16 1184 -4
18 6 24 21 34 81 7 40 14 82 16 93 4 21 69 385 79 445 3 19 19 109 35 200 16
91 31 179 34 195 6 37 84 479 91 518 3 15 7 39 10 55 3 15 8 43 11 62 2 19 11
69 19 110 8 41 17 93 21 115 3 22 14 85 24 140 11 55 29 156 40 225 11 69 25
148 31 175 12 61 116 654 124 710 4 22 8 47 10 55 2 8 7 30 10 48 16 98 14 87
66 382 64 358 69 388 75 426 3 20 8 46 10 58 2 11 7 35 9 51 6 34 64 358 70
393 15 84 25 142 30 172 11 65 111 635 119 675 2 11 7 40 11 65 4 25 9 54 12
65 2 11 6 34 9 50 2 17 11 66 19 110 8 44 17 96 20 115 6 34 61 350 70 400 6
30 54 305 60 340 4 25 14 82 60 340 14 80 28 159 31 175 10 61 45 262 59 340
12 65 39 218 80 450 2 17 7 39 9 50 2 11 7 40 11 65 4 25 9 54 11 65 2 11 6
34 9 50 2 17 14 83 26 148 11 66 18 122 14 125 -8 9 -1292 11 -1320 3 -11 -3
-21 -11 -22 -16 -1 -6 -4 -33 -7 -60 -3 -28 -10 -75 -16 -105 -5 -30 -12 -71
-15 -90 -2 -19 -14 -93 -24 -165 -11 -71 -23 -152 -26 -180 -4 -27 -8 -57 -10
-65 -2 -8 -7 -35 -10 -60 -3 -25 -8 -56 -10 -70 -2 -14 -11 -70 -19 -125 -9
-55 -18 -116 -21 -135 -2 -19 -21 -141 -40 -270 -19 -129 -38 -251 -40 -270
-3 -19 -17 -111 -31 -205 -14 -93 -34 -226 -45 -294 -11 -68 -21 -137 -23
-155 -10 -70 -18 -132 -21 -146 -2 -8 -8 -51 -15 -95 -6 -44 -13 -91 -15 -105
-11 -64 -16 -97 -19 -125 -3 -16 -7 -46 -10 -65 -3 -19 -10 -64 -15 -100 -5
-36 -22 -144 -36 -240 -14 -96 -31 -204 -36 -240 -5 -36 -21 -139 -34 -230
-14 -91 -27 -181 -30 -200 -3 -19 -10 -62 -15 -95 -5 -33 -12 -80 -15 -105 -3
-25 -8 -52 -10 -60 -2 -8 -6 -37 -10 -65 -3 -27 -13 -93 -21 -145 -9 -52 -17
-108 -20 -125 -10 -76 -26 -185 -34 -230 -5 -27 -11 -68 -14 -90 -3 -22 -10
-74 -16 -115 -6 -41 -13 -91 -16 -110 -2 -19 -9 -60 -14 -90 -5 -30 -12 -75
-15 -100 -10 -70 -25 -143 -30 -148 -12 -13 -27 33 -40 128 -3 19 -10 55 -15
80 -12 55 -40 206 -45 240 -3 19 -78 431 -121 665 -14 74 -36 199 -54 300 -11
61 -22 121 -25 135 -3 14 -10 52 -16 85 -5 33 -19 105 -29 160 -10 55 -28 154
-40 220 -12 66 -23 127 -25 135 -13 70 -38 205 -65 355 -11 61 -35 196 -54
300 -19 105 -37 201 -39 215 -3 14 -19 99 -36 190 -16 91 -32 176 -35 190 -2
14 -14 79 -26 145 -12 66 -24 131 -26 145 -3 14 -11 59 -19 100 -8 41 -16 86
-19 100 -12 72 -20 118 -47 260 -16 85 -31 169 -34 185 -2 17 -32 179 -65 360
-33 182 -63 346 -66 365 -13 82 -44 223 -49 229 -11 11 -1163 7 -1174 -4 -5
-5 -12 -30 -16 -55 -4 -25 -15 -92 -26 -150 -20 -110 -39 -221 -44 -256 -2
-11 -8 -45 -14 -75 -6 -30 -13 -72 -17 -94 -3 -22 -9 -58 -14 -80 -5 -22 -16
-83 -24 -135 -9 -52 -18 -107 -21 -122 -9 -49 -15 -81 -35 -193 -11 -60 -21
-119 -24 -130 -2 -11 -7 -42 -10 -70 -4 -27 -9 -57 -12 -66 -2 -10 -6 -30 -9
-45 -4 -34 -97 -560 -125 -714 -11 -58 -22 -121 -25 -140 -3 -19 -19 -109 -35
-200 -41 -230 -150 -848 -156 -889 -3 -18 -8 -43 -10 -55 -4 -19 -15 -83 -29
-161 -3 -16 -7 -41 -9 -55 -3 -14 -12 -68 -21 -120 -9 -52 -24 -140 -35 -195
-10 -55 -21 -116 -24 -135 -3 -19 -8 -46 -10 -60 -3 -14 -46 -258 -96 -543
-50 -284 -93 -524 -96 -532 -16 -41 -29 2 -59 190 -8 55 -17 111 -20 125 -2
14 -11 68 -20 120 -8 52 -17 106 -20 120 -2 14 -11 68 -20 120 -8 52 -17 106
-20 120 -2 14 -27 164 -55 334 -27 170 -52 320 -55 335 -3 14 -10 55 -15 91
-6 36 -35 211 -65 390 -29 179 -56 343 -60 365 -3 22 -7 47 -10 55 -2 8 -6 37
-10 64 -3 27 -12 83 -20 125 -7 42 -17 99 -21 126 -4 28 -8 52 -9 55 -1 5 -8
47 -20 126 -3 16 -8 45 -11 64 -3 19 -8 46 -10 60 -3 14 -7 36 -9 50 -3 14 -7
43 -11 65 -4 33 -33 206 -48 290 -7 37 -26 157 -51 315 -2 14 -13 81 -25 150
-12 69 -23 136 -25 150 -84 504 -108 645 -115 695 -5 33 -25 152 -44 265 -19
113 -37 225 -41 250 -4 25 -11 50 -16 55 -9 9 -1257 16 -1316 7z"/>
<path d="M18157 21788 c-18 -11 -18 -8325 0 -8336 7 -5 328 -8 713 -8 582 1
702 3 709 15 14 22 11 8320 -3 8329 -15 9 -1403 10 -1419 0z"/>
<path d="M20618 21789 c-10 -7 -13 -137 -14 -611 0 -332 2 -611 4 -620 4 -17
45 -18 688 -18 499 0 685 -3 690 -11 4 -7 7 -1598 7 -3536 0 -2812 2 -3527 12
-3537 10 -10 164 -12 713 -12 385 1 704 5 709 9 4 5 8 1596 8 3535 1 1940 4
3533 8 3540 7 9 156 12 693 12 l684 0 0 625 c0 493 -3 625 -12 626 -52 6
-4181 4 -4190 -2z"/>
<path d="M25684 21790 l-21 -5 1 -4163 c1 -3309 4 -4164 13 -4170 17 -11 1409
-9 1420 1 4 5 8 832 9 1839 0 1637 2 1832 16 1842 22 16 1463 15 1480 -2 9 -9
12 -447 12 -1841 1 -1006 5 -1833 9 -1838 5 -4 324 -8 709 -9 535 0 703 3 713
12 9 9 12 931 12 4169 0 3788 -2 4157 -16 4164 -21 11 -1407 8 -1418 -2 -4 -5
-8 -763 -9 -1686 0 -922 -4 -1682 -8 -1689 -11 -17 -1481 -17 -1492 0 -4 7 -8
767 -8 1689 -1 923 -5 1681 -9 1686 -9 9 -1379 12 -1413 3z"/>
<path d="M20275 12693 c-141 -18 -190 -39 -849 -366 -358 -178 -752 -373 -876
-434 -124 -61 -477 -236 -785 -388 -308 -153 -632 -312 -720 -355 -88 -43
-304 -148 -480 -235 -176 -86 -321 -157 -322 -157 -1 0 -299 -148 -662 -328
-363 -181 -668 -331 -678 -334 -48 -15 -46 -68 -46 1179 l0 1166 -27 37 c-39
54 -158 113 -310 152 -57 15 -275 20 -360 9 -104 -14 -122 -17 -185 -32 -223
-53 -390 -116 -787 -296 -79 -36 -932 -413 -1048 -463 -63 -28 -134 -59 -157
-69 -23 -11 -44 -19 -47 -19 -3 0 -29 -11 -58 -24 -29 -14 -82 -37 -118 -51
-36 -15 -83 -35 -105 -45 -42 -19 -266 -115 -775 -332 -168 -71 -318 -136
-335 -143 -16 -7 -363 -156 -770 -330 -907 -387 -835 -354 -835 -376 0 -23 27
-41 148 -96 274 -125 405 -159 607 -157 154 2 476 71 605 131 41 19 129 59
195 88 66 29 152 67 190 85 124 57 290 131 1150 512 198 88 378 168 400 178
48 22 815 362 1180 523 143 63 289 127 325 141 36 15 79 33 95 41 42 19 306
130 327 138 12 4 22 -1 29 -16 9 -16 13 -339 13 -1292 2 -1412 -4 -1308 70
-1373 67 -59 95 -66 261 -66 172 0 232 12 354 74 42 21 191 94 331 163 140 69
390 191 555 272 1045 514 1273 625 1282 626 5 1 20 10 35 20 14 10 28 19 31
19 9 0 551 267 1620 799 588 292 1070 531 1072 531 2 0 92 43 202 96 403 196
409 198 451 174 20 -11 207 -100 507 -240 116 -54 336 -157 490 -230 154 -73
309 -146 345 -163 36 -16 126 -59 200 -94 74 -36 173 -82 220 -103 47 -21 131
-62 188 -89 56 -28 104 -51 106 -51 2 0 66 -30 143 -66 76 -37 179 -86 229
-109 50 -23 94 -48 98 -54 5 -8 -624 -11 -2393 -11 -1321 0 -2403 0 -2406 0
-5 0 -127 -63 -350 -180 -49 -26 -146 -77 -215 -113 -69 -36 -213 -111 -320
-168 -107 -56 -210 -110 -229 -119 l-34 -17 37 -5 c21 -2 1654 -4 3629 -4
l3592 1 160 -71 c195 -86 360 -163 564 -260 84 -41 155 -74 157 -74 1 0 60
-28 131 -61 70 -34 184 -87 253 -119 169 -78 243 -113 457 -214 159 -75 319
-136 395 -152 34 -7 186 -6 243 1 247 32 343 66 395 142 28 40 60 43 163 12
38 -11 77 -22 86 -24 9 -2 57 -13 106 -24 50 -11 101 -22 115 -24 160 -30 156
-29 365 -54 129 -16 431 -17 3890 -18 4085 0 3796 -4 3917 56 212 106 244 334
70 489 -43 38 -112 72 -197 96 -56 16 -311 17 -3740 19 -2024 1 -3729 5 -3790
9 -60 4 -139 11 -174 16 -35 5 -67 8 -70 8 -5 -1 -71 8 -126 17 -702 120
-1169 406 -1291 790 -34 109 -37 206 -10 340 11 51 81 187 129 250 231 304
754 529 1372 590 33 3 98 10 145 14 47 5 1742 10 3768 10 2416 1 3708 5 3755
11 123 18 207 53 274 117 60 57 77 96 77 178 1 86 -19 131 -89 201 -62 62
-142 102 -248 124 -74 15 -371 16 -3801 15 -2047 -2 -3741 -5 -3766 -9 -25 -3
-81 -8 -125 -11 -44 -3 -91 -7 -105 -10 -14 -2 -54 -7 -90 -10 -36 -4 -72 -8
-80 -10 -8 -2 -34 -7 -57 -10 -23 -3 -55 -8 -70 -10 -80 -11 -295 -60 -423
-96 -475 -134 -875 -373 -1105 -659 -150 -186 -243 -389 -272 -592 -10 -66
-10 -289 -1 -343 38 -220 134 -441 267 -618 42 -56 47 -79 13 -72 -20 4 -106
43 -280 126 -68 33 -125 59 -127 59 -2 0 -79 36 -171 80 -91 44 -168 80 -169
80 -2 0 -61 28 -132 61 -70 34 -155 74 -188 89 -51 23 -226 105 -770 360 -189
89 -393 184 -460 215 -115 53 -439 208 -600 285 -142 68 -210 101 -450 215
-55 26 -152 71 -215 100 -63 29 -225 105 -360 170 -135 64 -285 136 -335 160
-49 23 -137 65 -195 93 -188 89 -334 158 -375 177 -22 10 -99 46 -170 81 -178
86 -227 104 -319 119 -73 12 -283 16 -351 8z"/>
<path d="M4865 12650 c-75 -12 -223 -68 -285 -109 -98 -64 -89 93 -89 -1555 0
-891 3 -1465 9 -1487 32 -117 201 -202 389 -195 99 5 175 38 225 99 l31 39 5
1296 c3 714 9 1303 13 1310 5 6 12 12 18 12 9 0 205 -80 294 -120 22 -10 85
-37 140 -60 55 -23 120 -51 145 -63 25 -11 74 -32 110 -47 61 -26 416 -180
505 -220 22 -10 108 -47 190 -83 83 -35 206 -89 275 -120 69 -30 231 -101 360
-157 263 -114 381 -165 425 -185 17 -7 176 -77 355 -155 179 -78 339 -148 355
-155 210 -93 246 -107 335 -124 98 -20 152 -4 440 126 30 14 69 31 85 38 17 8
75 34 130 58 55 25 112 52 127 59 l27 15 -42 18 c-61 27 -114 50 -180 79 -32
14 -60 26 -63 26 -3 0 -25 9 -50 20 -101 46 -134 60 -234 103 -58 25 -177 77
-265 117 -202 91 -544 242 -700 310 -140 61 -183 80 -245 108 -57 26 -436 192
-645 284 -88 39 -187 83 -220 98 -61 28 -152 68 -530 235 -115 51 -250 112
-300 135 -199 92 -298 128 -585 212 -148 42 -408 60 -555 38z"/>
<path d="M15989 11766 c-2 -2 -35 -6 -74 -9 -72 -6 -86 -9 -170 -28 -155 -36
-265 -131 -265 -227 0 -153 223 -258 565 -267 254 -7 460 47 575 151 68 62 63
138 -14 222 -55 61 -153 105 -288 131 -95 18 -318 37 -329 27z"/>
<path d="M24659 11766 c-2 -2 -33 -6 -69 -10 -140 -13 -286 -61 -345 -113
-128 -112 -93 -239 90 -328 62 -31 135 -50 260 -70 22 -4 101 -8 175 -9 341
-7 582 90 607 245 5 32 -26 102 -62 142 -51 55 -182 107 -330 132 -70 11 -316
20 -326 11z"/>
</g>
</svg>
